<svg width="412" height="923" viewBox="0 0 412 923" fill="none" xmlns="http://www.w3.org/2000/svg">
<ellipse cx="203.43" cy="199.284" rx="85.5741" ry="39.1643" fill="#DEDEDE"/>
<ellipse cx="204.459" cy="172.512" rx="42.8814" ry="20.6232" fill="#E7E7E7"/>
<rect x="171" y="93.6219" width="70" height="94" fill="#E8CFB2"/>
<path d="M261.397 63.3512C261.397 94.5253 244.139 119.196 205.523 119.196C166.907 119.196 149.337 97.828 149.337 66.6539C139.349 30.0243 172.748 0 204.899 0C240.171 0 269.513 30.6248 261.397 63.3512Z" fill="#4A4A4A"/>
<ellipse cx="205.524" cy="62.4505" rx="49.3187" ry="44.1357" fill="#DEC9AF"/>
<rect x="165.569" y="35.7289" width="79.2845" height="94.2763" fill="#DEC9AF"/>
<ellipse cx="205.211" cy="125.502" rx="39.6423" ry="38.7313" fill="#DEC9AF"/>
<path d="M256.715 98.1794C252.5 144.5 250 147.5 233.616 145.874C220.859 145.874 210.518 115.756 210.518 98.1794C210.518 80.6025 220.859 66.3537 233.616 66.3537C246.373 66.3537 256.715 67.5 256.715 98.1794Z" fill="url(#paint0_linear_24_3)"/>
<path d="M156.218 97.7848C158.712 144 165.5 145.479 179.316 145.479C192.073 145.479 202.415 115.362 202.415 97.7848C202.415 80.2079 192.073 65.9591 179.316 65.9591C166.559 65.9591 154.5 65.9591 156.218 97.7848Z" fill="url(#paint1_linear_24_3)"/>
<path d="M235.727 145.015C243.768 157.904 230.329 160.482 207.14 160.482C183.95 160.482 189.272 153.608 179.445 139.859C129.417 73.6928 175.872 75.4114 207.14 83.1451C230.329 83.1451 283.969 63.3812 235.727 145.015Z" fill="url(#paint2_linear_24_3)"/>
<path d="M225.17 15.1219C215.294 23.1219 212.156 45.2394 204.916 45.2394C197.675 45.2394 195.021 23.6219 184.104 15.1219C184.104 3.18294 197.675 2.00446 204.916 2.00446C212.156 2.00446 225.17 3.18294 225.17 15.1219Z" fill="#4A4A4A"/>
<path d="M227.687 132.985C223.22 137.281 214.286 137.281 207.139 136.422C192.831 136.422 184.805 134.703 183.019 132.125C183.019 125.956 193.724 117.517 208.033 117.517C222.341 117.517 227.687 126.815 227.687 132.985Z" fill="#D0C9AF"/>
<path d="M213.839 102.837C213.839 113.712 219.656 123.722 207.053 122.529C194.935 124.02 200.267 113.712 200.267 102.837C200.267 91.9614 204.63 83.1451 207.053 83.1451C209.477 83.1451 213.839 91.9614 213.839 102.837Z" fill="url(#paint3_linear_24_3)"/>
<path d="M251.5 132.414C246.5 156 236.5 162.491 205.406 162.491C183.849 162.491 167.5 162.491 161 131C161 116.584 192.903 132.271 205.406 125.622C216.387 130.33 254.49 118.311 251.5 132.414Z" fill="url(#paint4_linear_24_3)"/>
<path d="M93 196.461C93 185.414 102.389 176.696 113.405 177.513L202.037 184.087C202.964 184.156 203.895 184.157 204.822 184.089L295.621 177.483C306.629 176.682 316 185.396 316 196.433V437.94C316 439.025 315.907 440.109 315.722 441.179L300.012 531.969C298.436 541.077 290.534 547.729 281.29 547.729H125.884C116.502 547.729 108.525 540.881 107.103 531.607L93.2192 441.002C93.0733 440.05 93 439.088 93 438.124V196.461Z" fill="#E6E6E6"/>
<path d="M97 506H211L183.761 904H116.117L97 506Z" fill="#3A3A3A"/>
<path d="M211 506H311L296.824 904H227.364L211 506Z" fill="#3A3A3A"/>
<path d="M98.3534 476H318V551L311.724 576H100.707L96 551L98.3534 476Z" fill="#3A3A3A"/>
<path d="M183 923C183 914.612 178.733 906.567 171.138 900.636C163.543 894.705 153.241 900.636 142.5 900.636C131.759 900.636 121.457 894.705 113.862 900.636C106.267 906.567 102 914.612 102 923L142.5 923H183Z" fill="#4A4A4A"/>
<path d="M309 923C309 914.308 304.68 905.973 296.991 899.827C289.302 893.681 278.874 896.783 268 896.783C257.126 896.783 246.698 893.681 239.009 899.827C231.32 905.973 227 914.308 227 923L268 923H309Z" fill="#4A4A4A"/>
<rect width="49.2346" height="187.562" rx="11" transform="matrix(0.936795 -0.349879 0.439754 0.898118 280.604 197.319)" fill="#E8E8E8"/>
<rect width="48.9066" height="145.286" rx="11" transform="matrix(0.934072 0.357085 -0.443024 0.89651 365.412 331.093)" fill="#E8E8E8"/>
<path d="M312.173 438.828L357.855 456.292L351.603 468.945C348.911 474.391 342.129 477.048 336.455 474.879L311.322 465.271C305.648 463.101 303.229 456.927 305.921 451.481L312.173 438.828Z" fill="#ECE1BA"/>
<rect width="49.2346" height="187.562" rx="11" transform="matrix(-0.936795 -0.349879 -0.439754 0.898118 128.604 197.226)" fill="#E8E8E8"/>
<rect width="48.9066" height="145.286" rx="11" transform="matrix(-0.934072 0.357085 0.443024 0.89651 47.6824 331)" fill="#E8E8E8"/>
<path d="M101.189 439.277L55.5069 456.741L61.4918 468.852C64.1832 474.299 70.9652 476.955 76.6399 474.786L101.773 465.178C107.447 463.009 109.866 456.835 107.174 451.388L101.189 439.277Z" fill="#ECE1BA"/>
<path d="M203.171 189.067L160.8 208.168L162.647 166.56L203.171 189.067Z" fill="white"/>
<path d="M203.562 189.114L246.8 208.18L244.952 166.572L203.562 189.114Z" fill="white"/>
<path d="M198.816 226.07C200.527 230.168 206.333 230.168 208.044 226.07L219.663 198.245C221.038 194.951 218.618 191.318 215.049 191.318H191.811C188.241 191.318 185.822 194.951 187.197 198.245L198.816 226.07Z" fill="#4A4A4A"/>
<path d="M200.551 476.877C201.393 479.753 205.467 479.753 206.309 476.877L214.258 449.729C214.82 447.809 213.38 445.886 211.379 445.886H195.481C193.48 445.886 192.039 447.809 192.602 449.729L200.551 476.877Z" fill="#4A4A4A"/>
<path d="M195.795 222.817C195.819 221.178 197.155 219.861 198.794 219.861H208.065C209.705 219.861 211.041 221.178 211.065 222.817L214.426 449.148C214.451 450.822 213.101 452.192 211.427 452.192H195.433C193.759 452.192 192.408 450.822 192.433 449.148L195.795 222.817Z" fill="#4A4A4A"/>
<path d="M230 134.889C230 136.546 219 139.511 207.516 139.511C196.033 139.511 185 136.546 185 134.889C185 134.889 204.5 133.389 207.516 134.889C211 132.889 230 134.889 230 134.889Z" fill="#BA8D86"/>
<path d="M196 79.4C196 81.6091 192.388 83 185.424 83C174.5 83 172 77.8 172 77.8C172 77.8 178.459 75 185.424 75C192.388 75 196 79.4 196 79.4Z" fill="white"/>
<path d="M191 78.1112C191 81.3021 188.314 83 185 83C181.686 83 179 81.3021 179 78.1112C179 74.9203 181.686 75.0002 185 75.0002C188.314 75.0002 191 74.9203 191 78.1112Z" fill="#4A4A4A"/>
<path d="M216 79.4C216.389 81.5607 219.768 82.7208 227.017 83C240 83.5 241 77.8 241 77.8C241 77.8 234.272 75 227.017 75C218.704 75 216 79.4 216 79.4Z" fill="white"/>
<path d="M222 78.1112C222 81.3021 224.686 83 228 83C231.314 83 234 81.3021 234 78.1112C234 74.9203 231.314 75.0002 228 75.0002C224.686 75.0002 222 74.9203 222 78.1112Z" fill="#4A4A4A"/>
<path d="M200.739 66.1259C200.739 66.8667 201.258 69.1219 199.699 71.6219C196.58 71.6219 189.411 71.1219 187.223 70.6259C178.386 68.6219 164.351 70.6259 164.351 70.6259C166.431 63.1219 179.472 64.6259 187.223 64.6259C194.975 64.6259 200.739 64.4691 200.739 66.1259Z" fill="#4A4A4A"/>
<path d="M200.739 66.1259C200.739 66.8667 202.298 71 200.739 73.5C198 71.5 189.411 71.1219 187.223 70.6259C178.386 68.6219 164.351 70.6259 164.351 70.6259C166.431 63.1219 179.472 64.6259 187.223 64.6259C194.975 64.6259 200.739 64.4691 200.739 66.1259Z" fill="#4A4A4A"/>
<path d="M212.083 66.504C212.083 67.2447 211.563 69.5 213.123 72C216.242 72 223.356 71.1395 225.599 71.004C235.912 70.3808 247.348 73.3808 247.348 73.3808C245 66.504 236.951 65.004 225.599 65.004C217.847 65.004 212.083 64.8471 212.083 66.504Z" fill="#4A4A4A"/>
<defs>
<linearGradient id="paint0_linear_24_3" x1="233.616" y1="66.3537" x2="233.616" y2="145.874" gradientUnits="userSpaceOnUse">
<stop stop-color="#DEC9AF"/>
<stop offset="0.9999" stop-color="#D7CBA4"/>
<stop offset="1" stop-color="#DECEB2"/>
</linearGradient>
<linearGradient id="paint1_linear_24_3" x1="179.316" y1="65.9591" x2="179.316" y2="145.479" gradientUnits="userSpaceOnUse">
<stop stop-color="#DEC9AF"/>
<stop offset="0.9999" stop-color="#D7CBA4"/>
<stop offset="1" stop-color="#DECDB1"/>
</linearGradient>
<linearGradient id="paint2_linear_24_3" x1="207.14" y1="83.1451" x2="207.14" y2="160.482" gradientUnits="userSpaceOnUse">
<stop stop-color="#D0B183" stop-opacity="0"/>
<stop offset="1" stop-color="#DEC9AF"/>
</linearGradient>
<linearGradient id="paint3_linear_24_3" x1="207.139" y1="83.1451" x2="207.139" y2="122.673" gradientUnits="userSpaceOnUse">
<stop stop-color="#ECDFBC"/>
<stop offset="1" stop-color="#DBC8A8"/>
</linearGradient>
<linearGradient id="paint4_linear_24_3" x1="205.406" y1="118.003" x2="205.406" y2="170.209" gradientUnits="userSpaceOnUse">
<stop stop-color="#D7C2AA"/>
<stop offset="0.9999" stop-color="#D7CBA4"/>
<stop offset="1" stop-color="#ECE1BA" stop-opacity="0"/>
</linearGradient>
</defs>
</svg>
